<svg width="37" height="32" viewBox="0 0 37 32" fill="none" xmlns="http://www.w3.org/2000/svg">
<rect width="37" height="32" fill="#E5E5E5"/>
<g clip-path="url(#clip0)">
<rect width="1920" height="8300" transform="translate(-361 -662)" fill="white"/>
<path d="M32 24L35 11H14L11 24H32Z" fill="#FFF243"/>
<path d="M24.5 4V3.5C24.5 2.11929 25.6193 1 27 1C28.3807 1 29.5 2.11929 29.5 3.5V4C29.5 5.38071 28.3807 6.5 27 6.5C25.6193 6.5 24.5 5.38071 24.5 4Z" fill="#FFF243"/>
<path d="M23.9485 8.52918C24.2408 8.06056 24.0978 7.44375 23.6292 7.15149C23.1606 6.85923 22.5437 7.0022 22.2515 7.47082L23.9485 8.52918ZM29.1346 15.4721C29.6715 15.3425 30.0017 14.8022 29.8721 14.2654C29.7425 13.7285 29.2022 13.3983 28.6654 13.5279L29.1346 15.4721ZM11 24L10.0224 23.7894L9.76168 25H11V24ZM32.2 24V25H33.0075L33.1776 24.2106L32.2 24ZM35 11L35.9776 11.2106L36.2383 10H35V11ZM13.8 11V10H12.9925L12.8224 10.7894L13.8 11ZM26.1 10C25.5477 10 25.1 10.4477 25.1 11C25.1 11.5523 25.5477 12 26.1 12V10ZM17.7 12C18.2523 12 18.7 11.5523 18.7 11C18.7 10.4477 18.2523 10 17.7 10V12ZM14.9995 27.205C14.45 27.15 13.9599 27.551 13.905 28.1005C13.85 28.65 14.2509 29.1401 14.8005 29.195L14.9995 27.205ZM28.1191 29.6753C27.7741 30.1066 27.844 30.7359 28.2753 31.0809C28.7066 31.4259 29.3359 31.356 29.6809 30.9247L28.1191 29.6753ZM10 14C10.5523 14 11 13.5523 11 13C11 12.4477 10.5523 12 10 12V14ZM2 12C1.44772 12 1 12.4477 1 13C1 13.5523 1.44772 14 2 14V12ZM9 18C9.55229 18 10 17.5523 10 17C10 16.4477 9.55229 16 9 16V18ZM5 16C4.44772 16 4 16.4477 4 17C4 17.5523 4.44772 18 5 18V16ZM8 22C8.55228 22 9 21.5523 9 21C9 20.4477 8.55228 20 8 20V22ZM1 20C0.447715 20 0 20.4477 0 21C0 21.5523 0.447715 22 1 22V20ZM22.2515 7.47082L20.3339 10.5456L22.0309 11.6039L23.9485 8.52918L22.2515 7.47082ZM24.6665 16.5506L29.1346 15.4721L28.6654 13.5279L24.1972 14.6064L24.6665 16.5506ZM33.1776 24.2106L35.9776 11.2106L34.0224 10.7894L31.2224 23.7894L33.1776 24.2106ZM12.8224 10.7894L10.0224 23.7894L11.9776 24.2106L14.7776 11.2106L12.8224 10.7894ZM35 10H26.1V12H35V10ZM17.7 10H13.8V12H17.7V10ZM11 25H20.5V23H11V25ZM19.5385 24.2747C19.7167 24.8984 19.6821 25.7083 19.2048 26.2847C18.7509 26.8328 17.6439 27.4694 14.9995 27.205L14.8005 29.195C17.7561 29.4906 19.6824 28.8438 20.7452 27.5603C21.7846 26.305 21.75 24.735 21.4615 23.7253L19.5385 24.2747ZM20.5 25H30.3V23H20.5V25ZM30.3 25H32.2V23H30.3V25ZM29.4056 24.4472C29.691 25.018 30.1252 27.1678 28.1191 29.6753L29.6809 30.9247C32.1548 27.8322 31.8424 24.8487 31.1944 23.5528L29.4056 24.4472ZM10 12H2V14H10V12ZM9 16H5V18H9V16ZM8 20H1V22H8V20ZM30.8 3.8C30.8 1.70132 29.0987 0 27 0V2C27.9941 2 28.8 2.80589 28.8 3.8H30.8ZM27 7.6C29.0987 7.6 30.8 5.89868 30.8 3.8H28.8C28.8 4.79411 27.9941 5.6 27 5.6V7.6ZM23.2 3.8C23.2 5.89868 24.9013 7.6 27 7.6V5.6C26.0059 5.6 25.2 4.79411 25.2 3.8H23.2ZM20.3339 10.5456C18.4388 13.5842 21.1853 17.3909 24.6665 16.5506L24.1972 14.6064C22.4566 15.0266 21.0834 13.1232 22.0309 11.6039L20.3339 10.5456ZM25.2 3.8C25.2 2.80589 26.0059 2 27 2V0C24.9013 0 23.2 1.70132 23.2 3.8H25.2Z" fill="black"/>
</g>
<defs>
<clipPath id="clip0">
<rect width="1920" height="8300" fill="white" transform="translate(-361 -662)"/>
</clipPath>
</defs>
</svg>
