<svg width="24" height="34" viewBox="0 0 24 34" fill="none" xmlns="http://www.w3.org/2000/svg">
<rect width="24" height="34" fill="#E5E5E5"/>
<g clip-path="url(#clip0)">
<rect width="1920" height="8300" transform="translate(-367 -451)" fill="white"/>
<path fill-rule="evenodd" clip-rule="evenodd" d="M23 30V4C23 2.34315 21.6569 1 20 1H4C2.34315 1 1 2.34315 1 4V30C1 31.6569 2.34315 33 4 33H20C21.6569 33 23 31.6569 23 30ZM6 16L8 23H16L18 16H6Z" fill="#FFF243"/>
<path d="M11 30H13M12 16H18L16 23H8L6 16H12ZM12 16L17 11M12 16L7 11M1 30V4C1 2.34315 2.34315 1 4 1H20C21.6569 1 23 2.34315 23 4V30C23 31.6569 21.6569 33 20 33H4C2.34315 33 1 31.6569 1 30Z" stroke="black" stroke-width="2"/>
</g>
<defs>
<clipPath id="clip0">
<rect width="1920" height="8300" fill="white" transform="translate(-367 -451)"/>
</clipPath>
</defs>
</svg>
