<svg width="49" height="60" viewBox="0 0 49 60" fill="none" xmlns="http://www.w3.org/2000/svg">
<path d="M12.4651 20.5091V13.0349C12.4651 6.3882 17.8533 1 24.5 1V1C31.1467 1 36.5349 6.3882 36.5349 13.0349V20.5091M2 59L4.61628 11.5455H44.3837L47 59H2ZM36.5349 24.7273V24.7273C37.6908 24.7273 38.6279 23.7741 38.6279 22.6182V22.6182C38.6279 21.4622 37.6908 20.5091 36.5349 20.5091V20.5091C35.3789 20.5091 34.4419 21.4622 34.4419 22.6182V22.6182C34.4419 23.7741 35.3789 24.7273 36.5349 24.7273ZM12.4651 24.7273V24.7273C13.6211 24.7273 14.5581 23.7741 14.5581 22.6182V22.6182C14.5581 21.4622 13.6211 20.5091 12.4651 20.5091V20.5091C11.3092 20.5091 10.3721 21.4622 10.3721 22.6182V22.6182C10.3721 23.7741 11.3092 24.7273 12.4651 24.7273Z" stroke="black" stroke-width="2"/>
</svg>
