<svg width="147" height="179" viewBox="0 0 147 179" fill="none" xmlns="http://www.w3.org/2000/svg">
<path d="M146 46V69H122.5L105 79V69H48V46H146Z" fill="#FFF243"/>
<path d="M103 120.5L107.5 100H72L67.5 120.5H103Z" fill="#FFF243"/>
<path d="M90.5 85V84C90.5 82.067 92.067 80.5 94 80.5C95.933 80.5 97.5 82.067 97.5 84V85C97.5 86.933 95.933 88.5 94 88.5C92.067 88.5 90.5 86.933 90.5 85Z" fill="#FFF243"/>
<path d="M146 42V69H122.5L105 79V69H43V42H146Z" stroke="black" stroke-width="2"/>
<path d="M87.1466 92.1944C87.4405 91.7268 87.2998 91.1095 86.8322 90.8155C86.3647 90.5216 85.7474 90.6623 85.4534 91.1299L87.1466 92.1944ZM97.1093 104.392C97.6464 104.264 97.9776 103.724 97.849 103.187C97.7204 102.65 97.1807 102.319 96.6436 102.447L97.1093 104.392ZM64.2353 120.604L63.2581 120.392L62.9949 121.604H64.2353V120.604ZM102.894 120.604V121.604H103.7L103.871 120.816L102.894 120.604ZM108 97.0887L108.977 97.3009L109.24 96.0887H108V97.0887ZM69.3412 97.0887V96.0887H68.535L68.3639 96.8766L69.3412 97.0887ZM91.7706 96.0887C91.2183 96.0887 90.7706 96.5365 90.7706 97.0887C90.7706 97.641 91.2183 98.0887 91.7706 98.0887V96.0887ZM76.4529 98.0887C77.0052 98.0887 77.4529 97.641 77.4529 97.0887C77.4529 96.5365 77.0052 96.0887 76.4529 96.0887V98.0887ZM71.4458 127.206C70.8962 127.152 70.4065 127.553 70.3519 128.103C70.2974 128.652 70.6988 129.142 71.2483 129.196L71.4458 127.206ZM96.0981 131.372C95.7514 131.802 95.8188 132.432 96.2487 132.778C96.6786 133.125 97.3082 133.058 97.6549 132.628L96.0981 131.372ZM62.4118 101.706C62.964 101.706 63.4118 101.259 63.4118 100.706C63.4118 100.154 62.964 99.7065 62.4118 99.7065V101.706ZM47.8235 99.7065C47.2712 99.7065 46.8235 100.154 46.8235 100.706C46.8235 101.259 47.2712 101.706 47.8235 101.706V99.7065ZM60.5882 108.942C61.1405 108.942 61.5882 108.494 61.5882 107.942C61.5882 107.39 61.1405 106.942 60.5882 106.942V108.942ZM53.2941 106.942C52.7418 106.942 52.2941 107.39 52.2941 107.942C52.2941 108.494 52.7418 108.942 53.2941 108.942V106.942ZM58.7647 116.177C59.317 116.177 59.7647 115.73 59.7647 115.177C59.7647 114.625 59.317 114.177 58.7647 114.177V116.177ZM46 114.177C45.4477 114.177 45 114.625 45 115.177C45 115.73 45.4477 116.177 46 116.177V114.177ZM85.4534 91.1299L78.792 101.725L80.4851 102.79L87.1466 92.1944L85.4534 91.1299ZM83.1097 107.744L97.1093 104.392L96.6436 102.447L82.644 105.799L83.1097 107.744ZM103.871 120.816L108.977 97.3009L107.023 96.8766L101.917 120.392L103.871 120.816ZM68.3639 96.8766L63.2581 120.392L65.2125 120.816L70.3184 97.3009L68.3639 96.8766ZM108 96.0887H91.7706V98.0887H108V96.0887ZM76.4529 96.0887H69.3412V98.0887H76.4529V96.0887ZM64.2353 121.604H81.5588V119.604H64.2353V121.604ZM80.5979 120.881C80.9672 122.163 80.9328 123.933 79.8338 125.25C78.756 126.541 76.3986 127.698 71.4458 127.206L71.2483 129.196C76.5073 129.718 79.6812 128.554 81.3692 126.531C83.0358 124.535 83.0014 122 82.5197 120.327L80.5979 120.881ZM81.5588 121.604H99.4294V119.604H81.5588V121.604ZM99.4294 121.604H102.894V119.604H99.4294V121.604ZM98.5364 121.054C99.2034 122.377 99.9466 126.6 96.0981 131.372L97.6549 132.628C101.976 127.27 101.357 122.207 100.322 120.154L98.5364 121.054ZM62.4118 99.7065H47.8235V101.706H62.4118V99.7065ZM60.5882 106.942H53.2941V108.942H60.5882V106.942ZM58.7647 114.177H46V116.177H58.7647V114.177ZM99.5176 84.0648C99.5176 80.7049 96.7508 78 93.4118 78V80C95.6672 80 97.5176 81.8304 97.5176 84.0648H99.5176ZM93.4118 90.1297C96.7508 90.1297 99.5176 87.4248 99.5176 84.0648H97.5176C97.5176 86.2993 95.6672 88.1297 93.4118 88.1297V90.1297ZM87.3059 84.0648C87.3059 87.4248 90.0728 90.1297 93.4118 90.1297V88.1297C91.1563 88.1297 89.3059 86.2993 89.3059 84.0648H87.3059ZM78.792 101.725C76.884 104.76 79.6236 108.579 83.1097 107.744L82.644 105.799C80.901 106.217 79.5312 104.307 80.4851 102.79L78.792 101.725ZM89.3059 84.0648C89.3059 81.8304 91.1563 80 93.4118 80V78C90.0728 78 87.3059 80.7049 87.3059 84.0648H89.3059Z" fill="black"/>
<path d="M94 29.25V21C94 9.95431 85.0457 1 74 1H21C9.95431 1 1 9.95431 1 21V158C1 169.046 9.9543 178 21 178H74C85.0457 178 94 169.046 94 158V145.75M44.5 168H50.5C52.433 168 54 166.433 54 164.5V164.5C54 162.567 52.433 161 50.5 161H44.5C42.567 161 41 162.567 41 164.5V164.5C41 166.433 42.567 168 44.5 168Z" stroke="black" stroke-width="2"/>
</svg>
