<svg width="134" height="179" viewBox="0 0 134 179" fill="none" xmlns="http://www.w3.org/2000/svg">
<path d="M94 29.25V21C94 9.95431 85.0457 1 74 1H21C9.95431 1 1 9.95431 1 21V158C1 169.046 9.9543 178 21 178H74C85.0457 178 94 169.046 94 158V145.75M44.5 168H50.5C52.433 168 54 166.433 54 164.5V164.5C54 162.567 52.433 161 50.5 161H44.5C42.567 161 41 162.567 41 164.5V164.5C41 166.433 42.567 168 44.5 168Z" stroke="black" stroke-width="2"/>
<path d="M96.5 46H95.5C83.6259 46 74 55.6259 74 67.5C74 79.3741 83.6259 89 95.5 89H96.5C108.374 89 118 79.3741 118 67.5C118 55.6259 108.374 46 96.5 46Z" fill="#FFF243"/>
<path d="M59 129V137H133V129C133 115.193 121.807 104 108 104H84C70.1929 104 59 115.193 59 129Z" fill="#FFF243"/>
<path d="M118 67V66C118 52.7452 107.255 42 94 42C80.7452 42 70 52.7452 70 66V67C70 80.2548 80.7452 91 94 91C107.255 91 118 80.2548 118 67Z" stroke="black" stroke-width="2"/>
<path d="M55 125V137H133V125C133 111.193 121.807 100 108 100H80C66.1929 100 55 111.193 55 125Z" stroke="black" stroke-width="2"/>
</svg>
