<svg width="139" height="179" viewBox="0 0 139 179" fill="none" xmlns="http://www.w3.org/2000/svg">
<path d="M94 25.25V21C94 9.95431 85.0457 1 74 1H21C9.95431 1 1 9.95431 1 21V158C1 169.046 9.9543 178 21 178H74C85.0457 178 94 169.046 94 158V150.75M44.5 168H50.5C52.433 168 54 166.433 54 164.5V164.5C54 162.567 52.433 161 50.5 161H44.5C42.567 161 41 162.567 41 164.5V164.5C41 166.433 42.567 168 44.5 168Z" stroke="black" stroke-width="2"/>
<path d="M61 58L56 143H137L132 58H61Z" fill="#FFF243"/>
<path d="M71 70V56C71 43.2975 81.2975 33 94 33V33C106.703 33 117 43.2975 117 56V70M51 143L56 53H132L137 143H51ZM117 78V78C119.209 78 121 76.2091 121 74V74C121 71.7909 119.209 70 117 70V70C114.791 70 113 71.7909 113 74V74C113 76.2091 114.791 78 117 78ZM71 78V78C73.2091 78 75 76.2091 75 74V74C75 71.7909 73.2091 70 71 70V70C68.7909 70 67 71.7909 67 74V74C67 76.2091 68.7909 78 71 78Z" stroke="black" stroke-width="2"/>
</svg>
