<svg width="80" height="80" viewBox="0 0 80 80" fill="none" xmlns="http://www.w3.org/2000/svg">
<rect width="80" height="80" fill="#E5E5E5"/>
<g clip-path="url(#clip0)">
<rect width="1920" height="8300" transform="translate(-1313 -5014)" fill="white"/>
<rect x="-30" y="-53" width="277" height="400" fill="#F9F9F9"/>
<rect width="80" height="80" rx="40" fill="white"/>
<path d="M46.5 32.5V31C46.5 27.6863 43.8137 25 40.5 25C37.1863 25 34.5 27.6863 34.5 31V32.5C34.5 35.8137 37.1863 38.5 40.5 38.5C43.8137 38.5 46.5 35.8137 46.5 32.5Z" stroke="black" stroke-width="2"/>
<path d="M27 54.5V55H54V54.5C54 48.9772 49.5228 44.5 44 44.5H37C31.4772 44.5 27 48.9772 27 54.5Z" stroke="black" stroke-width="2"/>
</g>
<defs>
<clipPath id="clip0">
<rect width="1920" height="8300" fill="white" transform="translate(-1313 -5014)"/>
</clipPath>
</defs>
</svg>
