<svg width="62" height="82" viewBox="0 0 62 82" fill="none" xmlns="http://www.w3.org/2000/svg">
<path d="M13.8698 27.8679V17.7247C13.8698 8.48789 21.3577 1 30.5944 1V1C39.8312 1 47.3191 8.48789 47.3191 17.7247V27.8679M1.37305 44.0918L2.96238 15.5232H58.2265L60.4882 56.1786M16.6684 80.8775H27.7041M47.3191 33.6772V33.6772C48.9233 33.6772 50.2277 32.3767 50.2277 30.7725V30.7725C50.2277 29.1684 48.9233 27.8679 47.3191 27.8679V27.8679C45.7149 27.8679 44.4105 29.1684 44.4105 30.7725V30.7725C44.4105 32.3767 45.7149 33.6772 47.3191 33.6772ZM13.8698 33.6772V33.6772C15.474 33.6772 16.7784 32.3767 16.7784 30.7725V30.7725C16.7784 29.1684 15.474 27.8679 13.8698 27.8679V27.8679C12.2656 27.8679 10.9611 29.1684 10.9611 30.7725V30.7725C10.9611 32.3767 12.2656 33.6772 13.8698 33.6772Z" stroke="black" stroke-width="2"/>
</svg>
