<svg width="49" height="61" viewBox="0 0 49 61" fill="none" xmlns="http://www.w3.org/2000/svg">
<rect width="49" height="61" fill="#E5E5E5"/>
<g clip-path="url(#clip0)">
<rect width="1920" height="8300" transform="translate(-973 -3740)" fill="white"/>
<path d="M12.5102 21.0254V13.6683C12.5102 6.99296 17.9216 1.58154 24.5969 1.58154V1.58154C31.2723 1.58154 36.6837 6.99296 36.6837 13.6683V21.0254M2 59.3877L4.62755 12.0917H44.3724L47 59.3877H2ZM36.6837 25.2295V25.2295C37.8446 25.2295 38.7857 24.2884 38.7857 23.1275V23.1275C38.7857 21.9665 37.8446 21.0254 36.6837 21.0254V21.0254C35.5227 21.0254 34.5816 21.9665 34.5816 23.1275V23.1275C34.5816 24.2884 35.5227 25.2295 36.6837 25.2295ZM12.5102 25.2295V25.2295C13.6711 25.2295 14.6122 24.2884 14.6122 23.1275V23.1275C14.6122 21.9665 13.6711 21.0254 12.5102 21.0254V21.0254C11.3493 21.0254 10.4082 21.9665 10.4082 23.1275V23.1275C10.4082 24.2884 11.3493 25.2295 12.5102 25.2295Z" stroke="black" stroke-width="2"/>
<path d="M43.8698 -4.1321V-14.2753C43.8698 -23.5121 51.3577 -31 60.5944 -31V-31C69.8312 -31 77.3191 -23.5121 77.3191 -14.2753V-4.1321M31.373 12.0918L32.9624 -16.4768H88.2265L90.4882 24.1786M46.6684 48.8775H57.7041M77.3191 1.67718V1.67718C78.9233 1.67718 80.2277 0.376728 80.2277 -1.22746V-1.22746C80.2277 -2.83165 78.9233 -4.1321 77.3191 -4.1321V-4.1321C75.7149 -4.1321 74.4105 -2.83165 74.4105 -1.22746V-1.22746C74.4105 0.376728 75.7149 1.67718 77.3191 1.67718ZM43.8698 1.67718V1.67718C45.474 1.67718 46.7784 0.376728 46.7784 -1.22746V-1.22746C46.7784 -2.83165 45.474 -4.1321 43.8698 -4.1321V-4.1321C42.2656 -4.1321 40.9611 -2.83165 40.9611 -1.22746V-1.22746C40.9611 0.376728 42.2656 1.67718 43.8698 1.67718Z" stroke="black" stroke-width="2"/>
</g>
<defs>
<clipPath id="clip0">
<rect width="1920" height="8300" fill="white" transform="translate(-973 -3740)"/>
</clipPath>
</defs>
</svg>
