<svg width="56" height="23" viewBox="0 0 56 23" fill="none" xmlns="http://www.w3.org/2000/svg">
<rect width="56" height="23" fill="#E5E5E5"/>
<g clip-path="url(#clip0)">
<rect width="1920" height="8300" transform="translate(-1023 -4997)" fill="white"/>
<path d="M2 15.0801V1.08008H55V15.0801H43L33.5 21.0801V15.0801H2Z" fill="#FFF243"/>
<path d="M35.5 29.5801H15.5L13 41.5801H33L35.5 29.5801Z" fill="#FFF243"/>
<path d="M25.5 23.0801C25.5 24.4608 26.6193 25.5801 28 25.5801C29.3807 25.5801 30.5 24.4608 30.5 23.0801C30.5 21.6994 29.3807 20.5801 28 20.5801C26.6193 20.5801 25.5 21.6994 25.5 23.0801Z" fill="#FFF243"/>
<path d="M-6.96757 -14.6695V-24.6098C-6.96757 -33.6619 0.370567 -41 9.42261 -41V-41C18.4746 -41 25.8128 -33.6619 25.8128 -24.6098V-14.6695M-19.2144 1.23L-17.6568 -26.7673H36.502L38.0596 1.23M25.8128 -8.97637V-8.97637C27.3849 -8.97637 28.6632 -10.2508 28.6632 -11.8229V-11.8229C28.6632 -13.395 27.3849 -14.6695 25.8128 -14.6695V-14.6695C24.2407 -14.6695 22.9623 -13.395 22.9623 -11.8229V-11.8229C22.9623 -10.2508 24.2407 -8.97637 25.8128 -8.97637ZM-6.96757 -8.97637V-8.97637C-5.39546 -8.97637 -4.1171 -10.2508 -4.1171 -11.8229V-11.8229C-4.1171 -13.395 -5.39546 -14.6695 -6.96757 -14.6695V-14.6695C-8.53967 -14.6695 -9.81803 -13.395 -9.81803 -11.8229V-11.8229C-9.81803 -10.2508 -8.53967 -8.97637 -6.96757 -8.97637Z" stroke="black" stroke-width="2"/>
<path d="M55.0001 1.22998V15.135H42.8976L33.8851 20.285V15.135H1.95508V1.22998H55.0001Z" stroke="black" stroke-width="2"/>
<path d="M25.1011 27.3384C25.395 26.8708 25.2543 26.2535 24.7868 25.9596C24.3192 25.6656 23.7019 25.8063 23.4079 26.2739L25.1011 27.3384ZM29.9342 33.8339C30.4713 33.7053 30.8025 33.1656 30.6739 32.6285C30.5453 32.0914 30.0056 31.7602 29.4685 31.8888L29.9342 33.8339ZM12.8912 41.7113L11.9139 41.4991L11.6507 42.7113H12.8912V41.7113ZM32.8005 41.7113V42.7113H33.6066L33.7777 41.9235L32.8005 41.7113ZM35.43 29.6009L36.4072 29.813L36.6704 28.6009H35.43V29.6009ZM15.5207 29.6009V28.6009H14.7145L14.5435 29.3887L15.5207 29.6009ZM27.0718 28.6009C26.5196 28.6009 26.0718 29.0486 26.0718 29.6009C26.0718 30.1531 26.5196 30.6009 27.0718 30.6009V28.6009ZM19.1833 30.6009C19.7355 30.6009 20.1833 30.1531 20.1833 29.6009C20.1833 29.0486 19.7355 28.6009 19.1833 28.6009V30.6009ZM16.6524 44.6287C16.1029 44.5742 15.6131 44.9756 15.5586 45.5251C15.5041 46.0747 15.9054 46.5645 16.455 46.619L16.6524 44.6287ZM28.923 46.9524C28.5763 47.3823 28.6437 48.0119 29.0736 48.3586C29.5035 48.7053 30.1331 48.6378 30.4798 48.2079L28.923 46.9524ZM11.9521 32.464C12.5043 32.464 12.9521 32.0163 12.9521 31.464C12.9521 30.9117 12.5043 30.464 11.9521 30.464V32.464ZM4.43912 30.464C3.88683 30.464 3.43912 30.9117 3.43912 31.464C3.43912 32.0163 3.88683 32.464 4.43912 32.464V30.464ZM11.0129 36.1903C11.5652 36.1903 12.0129 35.7426 12.0129 35.1903C12.0129 34.638 11.5652 34.1903 11.0129 34.1903V36.1903ZM7.25647 34.1903C6.70419 34.1903 6.25647 34.638 6.25647 35.1903C6.25647 35.7426 6.70419 36.1903 7.25647 36.1903V34.1903ZM10.0738 39.9166C10.6261 39.9166 11.0738 39.4688 11.0738 38.9166C11.0738 38.3643 10.6261 37.9166 10.0738 37.9166V39.9166ZM3.5 37.9166C2.94772 37.9166 2.5 38.3643 2.5 38.9166C2.5 39.4688 2.94772 39.9166 3.5 39.9166V37.9166ZM22.7226 29.2427L21.8761 28.7104L22.7226 29.2427ZM25.961 33.757L25.7281 32.7844L25.961 33.757ZM23.4079 26.2739L21.8761 28.7104L23.5692 29.7749L25.1011 27.3384L23.4079 26.2739ZM26.1938 34.7295L29.9342 33.8339L29.4685 31.8888L25.7281 32.7844L26.1938 34.7295ZM33.7777 41.9235L36.4072 29.813L34.4528 29.3887L31.8232 41.4991L33.7777 41.9235ZM14.5435 29.3887L11.9139 41.4991L13.8684 41.9235L16.4979 29.813L14.5435 29.3887ZM35.43 28.6009H27.0718V30.6009H35.43V28.6009ZM19.1833 28.6009H15.5207V30.6009H19.1833V28.6009ZM12.8912 42.7113H21.8128V40.7113H12.8912V42.7113ZM20.8519 41.988C21.0148 42.5538 20.9804 43.2798 20.5521 43.793C20.145 44.2806 19.1289 44.8744 16.6524 44.6287L16.455 46.619C19.2376 46.895 21.0702 46.2933 22.0874 45.0746C23.0835 43.8814 23.049 42.3903 22.7737 41.4345L20.8519 41.988ZM21.8128 42.7113H31.0161V40.7113H21.8128V42.7113ZM31.0161 42.7113H32.8005V40.7113H31.0161V42.7113ZM30.1232 42.1614C30.3774 42.6657 30.7904 44.6368 28.923 46.9524L30.4798 48.2079C32.8196 45.3067 32.5314 42.4957 31.9091 41.2612L30.1232 42.1614ZM11.9521 30.464H4.43912V32.464H11.9521V30.464ZM11.0129 34.1903H7.25647V36.1903H11.0129V34.1903ZM10.0738 37.9166H3.5V39.9166H10.0738V37.9166ZM31.5466 22.8936C31.5466 20.8902 29.8994 19.2852 27.9171 19.2852V21.2852C28.8159 21.2852 29.5466 22.0157 29.5466 22.8936H31.5466ZM27.9171 26.5019C29.8994 26.5019 31.5466 24.8969 31.5466 22.8936H29.5466C29.5466 23.7714 28.8159 24.5019 27.9171 24.5019V26.5019ZM24.2875 22.8936C24.2875 24.8969 25.9347 26.5019 27.9171 26.5019V24.5019C27.0182 24.5019 26.2875 23.7714 26.2875 22.8936H24.2875ZM21.8761 28.7104C19.9681 31.7451 22.7077 35.5642 26.1938 34.7295L25.7281 32.7844C23.9851 33.2018 22.6153 31.2923 23.5692 29.7749L21.8761 28.7104ZM26.2875 22.8936C26.2875 22.0157 27.0182 21.2852 27.9171 21.2852V19.2852C25.9347 19.2852 24.2875 20.8902 24.2875 22.8936H26.2875Z" fill="black"/>
</g>
<defs>
<clipPath id="clip0">
<rect width="1920" height="8300" fill="white" transform="translate(-1023 -4997)"/>
</clipPath>
</defs>
</svg>
