<svg width="35" height="30" viewBox="0 0 35 30" fill="none" xmlns="http://www.w3.org/2000/svg">
<rect width="35" height="30" fill="#E5E5E5"/>
<g clip-path="url(#clip0)">
<rect width="1920" height="8300" transform="translate(-1025 -5016)" fill="white"/>
<path d="M0 -3.91992V-17.9199H53V-3.91992H41L31.5 2.08008V-3.91992H0Z" fill="#FFF243"/>
<path d="M33.5 10.5801H13.5L11 22.5801H31L33.5 10.5801Z" fill="#FFF243"/>
<path d="M23.5 4.08008C23.5 5.46079 24.6193 6.58008 26 6.58008C27.3807 6.58008 28.5 5.46079 28.5 4.08008C28.5 2.69937 27.3807 1.58008 26 1.58008C24.6193 1.58008 23.5 2.69937 23.5 4.08008Z" fill="#FFF243"/>
<path d="M53.0001 -17.77V-3.86502H40.8976L31.8851 1.28498V-3.86502H-0.0449219V-17.77H53.0001Z" stroke="black" stroke-width="2"/>
<path d="M23.1011 8.3384C23.395 7.87084 23.2543 7.25352 22.7868 6.95956C22.3192 6.66561 21.7019 6.80634 21.4079 7.27389L23.1011 8.3384ZM27.9342 14.8339C28.4713 14.7053 28.8025 14.1656 28.6739 13.6285C28.5453 13.0914 28.0056 12.7602 27.4685 12.8888L27.9342 14.8339ZM10.8912 22.7113L9.91395 22.4991L9.65075 23.7113H10.8912V22.7113ZM30.8005 22.7113V23.7113H31.6066L31.7777 22.9235L30.8005 22.7113ZM33.43 10.6009L34.4072 10.813L34.6704 9.60086H33.43V10.6009ZM13.5207 10.6009V9.60086H12.7145L12.5435 10.3887L13.5207 10.6009ZM25.0718 9.60086C24.5196 9.60086 24.0718 10.0486 24.0718 10.6009C24.0718 11.1531 24.5196 11.6009 25.0718 11.6009V9.60086ZM17.1833 11.6009C17.7355 11.6009 18.1833 11.1531 18.1833 10.6009C18.1833 10.0486 17.7355 9.60086 17.1833 9.60086V11.6009ZM14.6524 25.6287C14.1029 25.5742 13.6131 25.9756 13.5586 26.5251C13.5041 27.0747 13.9054 27.5645 14.455 27.619L14.6524 25.6287ZM26.923 27.9524C26.5763 28.3823 26.6437 29.0119 27.0736 29.3586C27.5035 29.7053 28.1331 29.6378 28.4798 29.2079L26.923 27.9524ZM9.95206 13.464C10.5043 13.464 10.9521 13.0163 10.9521 12.464C10.9521 11.9117 10.5043 11.464 9.95206 11.464V13.464ZM2.43912 11.464C1.88683 11.464 1.43912 11.9117 1.43912 12.464C1.43912 13.0163 1.88683 13.464 2.43912 13.464V11.464ZM9.01294 17.1903C9.56522 17.1903 10.0129 16.7426 10.0129 16.1903C10.0129 15.638 9.56522 15.1903 9.01294 15.1903V17.1903ZM5.25647 15.1903C4.70419 15.1903 4.25647 15.638 4.25647 16.1903C4.25647 16.7426 4.70419 17.1903 5.25647 17.1903V15.1903ZM8.07382 20.9166C8.62611 20.9166 9.07382 20.4688 9.07382 19.9166C9.07382 19.3643 8.62611 18.9166 8.07382 18.9166V20.9166ZM1.5 18.9166C0.947715 18.9166 0.5 19.3643 0.5 19.9166C0.5 20.4688 0.947715 20.9166 1.5 20.9166V18.9166ZM20.7226 10.2427L19.8761 9.7104L20.7226 10.2427ZM23.961 14.757L23.7281 13.7844L23.961 14.757ZM21.4079 7.27389L19.8761 9.7104L21.5692 10.7749L23.1011 8.3384L21.4079 7.27389ZM24.1938 15.7295L27.9342 14.8339L27.4685 12.8888L23.7281 13.7844L24.1938 15.7295ZM31.7777 22.9235L34.4072 10.813L32.4528 10.3887L29.8232 22.4991L31.7777 22.9235ZM12.5435 10.3887L9.91395 22.4991L11.8684 22.9235L14.4979 10.813L12.5435 10.3887ZM33.43 9.60086H25.0718V11.6009H33.43V9.60086ZM17.1833 9.60086H13.5207V11.6009H17.1833V9.60086ZM10.8912 23.7113H19.8128V21.7113H10.8912V23.7113ZM18.8519 22.988C19.0148 23.5538 18.9804 24.2798 18.5521 24.793C18.145 25.2806 17.1289 25.8744 14.6524 25.6287L14.455 27.619C17.2376 27.895 19.0702 27.2933 20.0874 26.0746C21.0835 24.8814 21.049 23.3903 20.7737 22.4345L18.8519 22.988ZM19.8128 23.7113H29.0161V21.7113H19.8128V23.7113ZM29.0161 23.7113H30.8005V21.7113H29.0161V23.7113ZM28.1232 23.1614C28.3774 23.6657 28.7904 25.6368 26.923 27.9524L28.4798 29.2079C30.8196 26.3067 30.5314 23.4957 29.9091 22.2612L28.1232 23.1614ZM9.95206 11.464H2.43912V13.464H9.95206V11.464ZM9.01294 15.1903H5.25647V17.1903H9.01294V15.1903ZM8.07382 18.9166H1.5V20.9166H8.07382V18.9166ZM29.5466 3.89355C29.5466 1.89023 27.8994 0.285156 25.9171 0.285156V2.28516C26.8159 2.28516 27.5466 3.01572 27.5466 3.89355H29.5466ZM25.9171 7.50195C27.8994 7.50195 29.5466 5.89688 29.5466 3.89355H27.5466C27.5466 4.77138 26.8159 5.50195 25.9171 5.50195V7.50195ZM22.2875 3.89355C22.2875 5.89688 23.9347 7.50195 25.9171 7.50195V5.50195C25.0182 5.50195 24.2875 4.77138 24.2875 3.89355H22.2875ZM19.8761 9.7104C17.9681 12.7451 20.7077 16.5642 24.1938 15.7295L23.7281 13.7844C21.9851 14.2018 20.6153 12.2923 21.5692 10.7749L19.8761 9.7104ZM24.2875 3.89355C24.2875 3.01572 25.0182 2.28516 25.9171 2.28516V0.285156C23.9347 0.285156 22.2875 1.89023 22.2875 3.89355H24.2875Z" fill="black"/>
</g>
<defs>
<clipPath id="clip0">
<rect width="1920" height="8300" fill="white" transform="translate(-1025 -5016)"/>
</clipPath>
</defs>
</svg>
