<svg width="47" height="46" viewBox="0 0 47 46" fill="none" xmlns="http://www.w3.org/2000/svg">
<rect width="47" height="46" fill="#E5E5E5"/>
<g clip-path="url(#clip0)">
<rect width="1920" height="8300" transform="translate(-1031 -3754)" fill="white"/>
<path d="M30.5 10.3877L24 0.887695L0 10.3877V45.3877H47V10.3877H30.5Z" fill="#FFF243"/>
<path d="M-14.1302 -18.1321V-28.2753C-14.1302 -37.5121 -6.64234 -45 2.59444 -45V-45C11.8312 -45 19.3191 -37.5121 19.3191 -28.2753V-18.1321M-26.627 -1.90816L-25.0376 -30.4768H30.2265L32.4882 10.1786M-11.3316 34.8775H-0.29589M19.3191 -12.3228V-12.3228C20.9233 -12.3228 22.2277 -13.6233 22.2277 -15.2275V-15.2275C22.2277 -16.8316 20.9233 -18.1321 19.3191 -18.1321V-18.1321C17.7149 -18.1321 16.4105 -16.8316 16.4105 -15.2275V-15.2275C16.4105 -13.6233 17.7149 -12.3228 19.3191 -12.3228ZM-14.1302 -12.3228V-12.3228C-12.526 -12.3228 -11.2216 -13.6233 -11.2216 -15.2275V-15.2275C-11.2216 -16.8316 -12.526 -18.1321 -14.1302 -18.1321V-18.1321C-15.7344 -18.1321 -17.0389 -16.8316 -17.0389 -15.2275V-15.2275C-17.0389 -13.6233 -15.7344 -12.3228 -14.1302 -12.3228Z" stroke="black" stroke-width="2"/>
<path d="M-0.000244141 10.3877L-3.43323e-05 45.3878H47L46.9998 10.3877H30.9998M-0.000244141 10.3877L23.9998 1.3877L30.9998 10.3877M-0.000244141 10.3877H30.9998M5.99976 17.3877H41.9998M37.5 32.3877V32.3877C35.567 32.3877 34 33.9547 34 35.8877V35.8877C34 37.8207 35.567 39.3877 37.5 39.3877V39.3877C39.433 39.3877 41 37.8207 41 35.8877V35.8877C41 33.9547 39.433 32.3877 37.5 32.3877Z" stroke="black" stroke-width="2"/>
</g>
<defs>
<clipPath id="clip0">
<rect width="1920" height="8300" fill="white" transform="translate(-1031 -3754)"/>
</clipPath>
</defs>
</svg>
