<svg width="53" height="54" viewBox="0 0 53 54" fill="none" xmlns="http://www.w3.org/2000/svg">
<rect width="53" height="54" fill="#E5E5E5"/>
<g clip-path="url(#clip0)">
<rect width="1920" height="8300" transform="translate(-514 -4419)" fill="white"/>
<path d="M-9.96757 -9.66945V-19.6098C-9.96757 -28.6619 -2.62943 -36 6.42261 -36V-36C15.4746 -36 22.8128 -28.6619 22.8128 -19.6098V-9.66945M-22.2144 6.23L-20.6568 -21.7673H33.502L35.0596 6.23M-7.22489 42.28H3.59009M22.8128 -3.97637V-3.97637C24.3849 -3.97637 25.6632 -5.25081 25.6632 -6.82291V-6.82291C25.6632 -8.39501 24.3849 -9.66945 22.8128 -9.66945V-9.66945C21.2407 -9.66945 19.9623 -8.39501 19.9623 -6.82291V-6.82291C19.9623 -5.25081 21.2407 -3.97637 22.8128 -3.97637ZM-9.96757 -3.97637V-3.97637C-8.39546 -3.97637 -7.1171 -5.25081 -7.1171 -6.82291V-6.82291C-7.1171 -8.39501 -8.39546 -9.66945 -9.96757 -9.66945V-9.66945C-11.5397 -9.66945 -12.818 -8.39501 -12.818 -6.82291V-6.82291C-12.818 -5.25081 -11.5397 -3.97637 -9.96757 -3.97637Z" stroke="black" stroke-width="2"/>
<path d="M49.9398 52.5798H3.58979V18.0748H1.52979V9.31982H51.9998V18.0748H49.9398V52.5798Z" fill="#FFF243"/>
<path d="M49.9398 18.0749V52.5799H3.58979V18.0749M26.7648 9.31994L47.1146 7.96329C48.7044 7.8573 49.9398 6.53684 49.9398 4.94351V4.94351C49.9398 2.82728 47.8234 1.36446 45.8437 2.11233L26.7648 9.31994ZM26.7648 9.31994L6.41494 7.96329C4.82514 7.8573 3.58979 6.53684 3.58979 4.94351V4.94351C3.58979 2.82728 5.70615 1.36446 7.68582 2.11233L26.7648 9.31994ZM21.6148 52.5799V18.0749V9.31994M31.9148 52.5799V18.0749V9.31994M1.52979 18.0749H51.9998V9.31994H1.52979V18.0749Z" stroke="black" stroke-width="2"/>
</g>
<defs>
<clipPath id="clip0">
<rect width="1920" height="8300" fill="white" transform="translate(-514 -4419)"/>
</clipPath>
</defs>
</svg>
