<svg width="80" height="80" viewBox="0 0 80 80" fill="none" xmlns="http://www.w3.org/2000/svg">
<rect width="80" height="80" fill="#E5E5E5"/>
<g clip-path="url(#clip0)">
<rect width="1920" height="8300" transform="translate(-1180 -1334)" fill="white"/>
<rect x="-1180" y="-279" width="1920" height="700" fill="#1E1E1E"/>
<rect width="80" height="80" rx="40" fill="black"/>
<path d="M41 51H39M49 38V28C49 26.3431 47.6569 25 46 25H34C32.3431 25 31 26.3431 31 28V52C31 53.6569 32.3431 55 34 55H46C47.6569 55 49 53.6569 49 52V47" stroke="white" stroke-width="2"/>
<path d="M49 38H43.7749C42.4097 38 41.4458 39.3374 41.8775 40.6325L43.5442 45.6325C43.8164 46.4491 44.5807 47 45.4415 47H52.5585C53.4193 47 54.1836 46.4491 54.4558 45.6325L56.1225 40.6325C56.5542 39.3374 55.5903 38 54.2251 38H49ZM49 38L55 32M49 38L43 32" stroke="white" stroke-width="2"/>
</g>
<defs>
<clipPath id="clip0">
<rect width="1920" height="8300" fill="white" transform="translate(-1180 -1334)"/>
</clipPath>
</defs>
</svg>
