<svg width="64" height="64" viewBox="0 0 64 64" fill="none" xmlns="http://www.w3.org/2000/svg">
<rect width="64" height="64" fill="#E5E5E5"/>
<g clip-path="url(#clip0)">
<rect width="1920" height="8300" transform="translate(-826 -2896)" fill="white"/>
<rect x="-826" y="-193" width="1920" height="750" fill="#1E1E1E"/>
<rect width="64" height="64" rx="32" fill="black"/>
<path fill-rule="evenodd" clip-rule="evenodd" d="M22.6 21C21.7163 21 21 21.6964 21 22.5556V28C21 28.8591 21.7163 29.5556 22.6 29.5556H24.2L22.6 36.5556C22.1582 36.5556 21.8 36.9038 21.8 37.3333V40.4444C21.8 41.3036 22.5163 42 23.4 42H29.8C30.6837 42 31.4 41.3036 31.4 40.4444V38.1111C31.4 37.252 30.6837 36.5556 29.8 36.5556H27.4L28.1111 33.4444H29.4286C31.565 33.4444 33.4654 32.087 34.1583 30.0661L34.3333 29.5556H35.4C36.2837 29.5556 37 28.8591 37 28H39C40.1046 28 41 27.1046 41 26H43H46C46.5523 26 47 25.5523 47 25C47 24.4477 46.5523 24 46 24H43H41C41 22.8954 40.1046 22 39 22H36.8949C36.6649 21.4153 36.0823 21 35.4 21H22.6ZM29.1074 29.5H32.6074L32.5898 29.5883C32.3093 30.9906 31.0781 32 29.648 32H28.6074L29.1074 29.5Z" fill="#FFF243"/>
</g>
<defs>
<clipPath id="clip0">
<rect width="1920" height="8300" fill="white" transform="translate(-826 -2896)"/>
</clipPath>
</defs>
</svg>
