<svg width="64" height="64" viewBox="0 0 64 64" fill="none" xmlns="http://www.w3.org/2000/svg">
<rect width="64" height="64" fill="#E5E5E5"/>
<g clip-path="url(#clip0)">
<rect width="1920" height="8300" transform="translate(-416 -2896)" fill="white"/>
<rect x="-416" y="-193" width="1920" height="750" fill="#1E1E1E"/>
<rect width="64" height="64" rx="32" fill="black"/>
<path d="M27.4465 19.0072C26.689 18.9359 25.984 19.4019 25.7904 20.1378L25.0962 22.7756C33.8911 23.0329 39.8407 28.8982 40.2129 37.6355L42.8821 36.8958C43.619 36.6914 44.077 35.9733 43.9893 35.2129C43.0105 26.7386 35.9739 19.812 27.4465 19.0072ZM24.7057 24.2574L20.025 42.0466C19.991 42.1759 19.9917 42.3118 20.0269 42.4407C20.0622 42.5696 20.1309 42.6869 20.226 42.7808C20.321 42.8747 20.4392 42.9419 20.5685 42.9755C20.6979 43.0092 20.8338 43.0081 20.9626 42.9725L38.7288 38.0457C38.5286 29.8474 32.9592 24.3511 24.7057 24.2592V24.2574ZM25.9995 38.5009C25.7028 38.5009 25.4128 38.4129 25.1661 38.2481C24.9194 38.0833 24.7271 37.849 24.6136 37.5749C24.5001 37.3008 24.4704 36.9992 24.5282 36.7082C24.5861 36.4172 24.729 36.1499 24.9388 35.9401C25.1486 35.7303 25.4158 35.5875 25.7068 35.5296C25.9978 35.4717 26.2994 35.5014 26.5735 35.615C26.8476 35.7285 27.0819 35.9208 27.2467 36.1674C27.4115 36.4141 27.4995 36.7041 27.4995 37.0008C27.4995 37.3987 27.3415 37.7802 27.0602 38.0615C26.7788 38.3428 26.3973 38.5009 25.9995 38.5009ZM28.2495 31.3756C27.9529 31.3756 27.6628 31.2876 27.4162 31.1228C27.1695 30.958 26.9772 30.7237 26.8637 30.4496C26.7501 30.1755 26.7204 29.8739 26.7783 29.5829C26.8362 29.2919 26.9791 29.0246 27.1888 28.8149C27.3986 28.6051 27.6659 28.4622 27.9569 28.4043C28.2479 28.3464 28.5495 28.3761 28.8236 28.4897C29.0977 28.6032 29.332 28.7955 29.4968 29.0422C29.6616 29.2888 29.7496 29.5789 29.7496 29.8756C29.7496 30.2734 29.5916 30.6549 29.3102 30.9363C29.0289 31.2176 28.6474 31.3756 28.2495 31.3756ZM33.1247 36.2508C32.828 36.2508 32.538 36.1628 32.2913 35.998C32.0446 35.8332 31.8524 35.5989 31.7388 35.3248C31.6253 35.0507 31.5956 34.7491 31.6535 34.4581C31.7114 34.1671 31.8542 33.8998 32.064 33.69C32.2738 33.4803 32.5411 33.3374 32.8321 33.2795C33.123 33.2216 33.4247 33.2513 33.6988 33.3649C33.9729 33.4784 34.2071 33.6707 34.372 33.9174C34.5368 34.164 34.6248 34.4541 34.6248 34.7507C34.6248 35.1486 34.4667 35.5301 34.1854 35.8114C33.9041 36.0928 33.5225 36.2508 33.1247 36.2508Z" fill="#FFF243"/>
</g>
<defs>
<clipPath id="clip0">
<rect width="1920" height="8300" fill="white" transform="translate(-416 -2896)"/>
</clipPath>
</defs>
</svg>
