<svg width="64" height="64" viewBox="0 0 64 64" fill="none" xmlns="http://www.w3.org/2000/svg">
<rect width="64" height="64" fill="#E5E5E5"/>
<g clip-path="url(#clip0)">
<rect width="1920" height="8300" transform="translate(-621 -2896)" fill="white"/>
<rect x="-621" y="-193" width="1920" height="750" fill="#1E1E1E"/>
<rect width="64" height="64" rx="32" fill="black"/>
<path d="M33.9772 26.3412C31.5066 25.1364 28.6095 25.849 26.9359 27.8788L29.5236 30.4665C29.8189 30.7618 29.8189 31.2353 29.5236 31.5259C29.3783 31.6713 29.1861 31.7463 28.9939 31.7463C28.8017 31.7463 28.6095 31.6713 28.4641 31.5259L26.1108 29.1726L20.1055 41.4876C19.9696 41.7689 19.9602 42.1111 20.1055 42.4111C20.3587 42.9315 20.9915 43.1471 21.5119 42.894L27.775 39.8375L25.4685 37.5311C25.1732 37.2404 25.1732 36.7623 25.4685 36.4716C25.7639 36.181 26.2373 36.181 26.528 36.4716L29.2001 39.1437L33.9818 36.8092C35.107 36.2607 36.068 35.3419 36.6587 34.1324C38.0697 31.24 36.8696 27.7522 33.9772 26.3412ZM38.2948 24.7051C39.2089 22.7972 38.7354 20.5423 36.8743 19C34.5163 20.9548 34.4131 24.0394 36.504 26.1209L36.879 26.4959C38.9605 28.5867 42.0498 28.4835 44 26.1255C42.4577 24.2645 40.2028 23.791 38.2948 24.7051Z" fill="#FFF243"/>
</g>
<defs>
<clipPath id="clip0">
<rect width="1920" height="8300" fill="white" transform="translate(-621 -2896)"/>
</clipPath>
</defs>
</svg>
