<svg width="64" height="64" viewBox="0 0 64 64" fill="none" xmlns="http://www.w3.org/2000/svg">
<rect width="64" height="64" fill="#E5E5E5"/>
<g clip-path="url(#clip0)">
<rect width="1920" height="8300" transform="translate(-1236 -2896)" fill="white"/>
<rect x="-1236" y="-193" width="1920" height="750" fill="#1E1E1E"/>
<rect width="64" height="64" rx="32" fill="black"/>
<path fill-rule="evenodd" clip-rule="evenodd" d="M29.8963 20.6075L32.0005 24.8158H27.2955C25.2383 24.8158 23.8316 22.738 24.5956 20.828C25.5274 18.4984 28.7743 18.3633 29.8963 20.6075ZM32.0005 24.8158L34.1046 20.6075C35.2267 18.3633 38.4735 18.4984 39.4054 20.828C40.1694 22.738 38.7627 24.8158 36.7055 24.8158H32.0005ZM23 26.8154H31V30.8154H23V26.8154ZM41 26.8154H33V30.8154H41V26.8154ZM24 32.8154H31V42.8154H24V32.8154ZM33 32.8154H40V42.8154H33V32.8154Z" fill="#FFF243"/>
</g>
<defs>
<clipPath id="clip0">
<rect width="1920" height="8300" fill="white" transform="translate(-1236 -2896)"/>
</clipPath>
</defs>
</svg>
