<svg width="148" height="179" viewBox="0 0 148 179" fill="none" xmlns="http://www.w3.org/2000/svg">
<path d="M116 56H118V75H128V84H124L126.625 117.244C126.798 119.447 124.612 121.075 122.551 120.278L119.435 119.071C114.314 117.089 108.654 117.004 103.477 118.832L102.012 119.349C97.151 121.064 91.849 121.064 86.9878 119.349L85.2126 118.722C80.3037 116.99 74.8898 117.424 70.3198 119.916C68.6634 120.82 66.6618 119.541 66.7856 117.658L69 84H65V75H113V59C113 57.3431 114.343 56 116 56Z" fill="#FFF243"/>
<path d="M68.9349 136L69 124.37M119.935 136L120 124.37M75.9349 136L76 122.25M112.935 136L113 122.25M147 57.0832L143 97.0003M142.935 136L143 105M143 97.0003H124.909M143 97.0003V105M124.909 97.0003L124 84H64.8184L61.5253 122.874C61.3314 125.164 63.6777 126.813 65.766 125.854L70.2874 123.779C75.0539 121.591 80.5374 121.591 85.3038 123.779L86.9919 124.554C91.7584 126.741 97.2419 126.741 102.008 124.554L103.696 123.779C108.463 121.591 113.946 121.591 118.713 123.779L123.18 125.829C125.28 126.793 127.636 125.12 127.418 122.819L125.727 105M124.909 97.0003L125.727 105M143 105H125.727M42 57.0835L45.9349 97M45.9349 136V105M45.9349 97H63.7172L63.0395 105H45.9349M45.9349 97V105M110 75.0001L61.0911 75L61.0003 84H127.909L128 75L118 75.0001M110 75.0001V58C110 55.7909 111.791 54 114 53.9999V53.9999M110 75.0001H118M118 75.0001V58C118 55.7909 116.209 54 114 53.9999V53.9999M114 53.9999V44M69.0458 69H86M72.0458 72H83" stroke="black" stroke-width="2"/>
<path d="M94 45.25V21C94 9.95431 85.0457 1 74 1H21C9.95431 1 1 9.95431 1 21V158C1 169.046 9.9543 178 21 178H74C85.0457 178 94 169.046 94 158V140.75M44.5 168H50.5C52.433 168 54 166.433 54 164.5V164.5C54 162.567 52.433 161 50.5 161H44.5C42.567 161 41 162.567 41 164.5V164.5C41 166.433 42.567 168 44.5 168Z" stroke="black" stroke-width="2"/>
</svg>
