<svg width="65" height="55" viewBox="0 0 65 55" fill="none" xmlns="http://www.w3.org/2000/svg">
<path d="M42.1466 14.1944C42.4405 13.7268 42.2998 13.1095 41.8322 12.8155C41.3647 12.5216 40.7474 12.6623 40.4534 13.1299L42.1466 14.1944ZM52.1093 26.3923C52.6464 26.2637 52.9776 25.724 52.849 25.1869C52.7204 24.6498 52.1807 24.3187 51.6436 24.4473L52.1093 26.3923ZM19.2353 42.6041L18.2581 42.3919L17.9949 43.6041H19.2353V42.6041ZM57.8941 42.6041V43.6041H58.7003L58.8713 42.8163L57.8941 42.6041ZM63 19.0887L63.9772 19.3009L64.2404 18.0887H63V19.0887ZM24.3412 19.0887V18.0887H23.535L23.3639 18.8766L24.3412 19.0887ZM46.7706 18.0887C46.2183 18.0887 45.7706 18.5365 45.7706 19.0887C45.7706 19.641 46.2183 20.0887 46.7706 20.0887V18.0887ZM31.4529 20.0887C32.0052 20.0887 32.4529 19.641 32.4529 19.0887C32.4529 18.5365 32.0052 18.0887 31.4529 18.0887V20.0887ZM26.4458 49.2062C25.8962 49.1517 25.4065 49.5531 25.3519 50.1027C25.2974 50.6522 25.6988 51.142 26.2483 51.1965L26.4458 49.2062ZM51.0981 53.3722C50.7514 53.8021 50.8188 54.4317 51.2487 54.7784C51.6786 55.1251 52.3082 55.0577 52.6549 54.6278L51.0981 53.3722ZM17.4118 23.7065C17.964 23.7065 18.4118 23.2588 18.4118 22.7065C18.4118 22.1542 17.964 21.7065 17.4118 21.7065V23.7065ZM2.82353 21.7065C2.27124 21.7065 1.82353 22.1542 1.82353 22.7065C1.82353 23.2588 2.27124 23.7065 2.82353 23.7065V21.7065ZM15.5882 30.942C16.1405 30.942 16.5882 30.4943 16.5882 29.942C16.5882 29.3897 16.1405 28.942 15.5882 28.942V30.942ZM8.29412 28.942C7.74183 28.942 7.29412 29.3897 7.29412 29.942C7.29412 30.4943 7.74183 30.942 8.29412 30.942V28.942ZM13.7647 38.1775C14.317 38.1775 14.7647 37.7298 14.7647 37.1775C14.7647 36.6252 14.317 36.1775 13.7647 36.1775V38.1775ZM1 36.1775C0.447715 36.1775 0 36.6252 0 37.1775C0 37.7298 0.447715 38.1775 1 38.1775V36.1775ZM40.4534 13.1299L33.792 23.7253L35.4851 24.7898L42.1466 14.1944L40.4534 13.1299ZM38.1097 29.7444L52.1093 26.3923L51.6436 24.4473L37.644 27.7993L38.1097 29.7444ZM58.8713 42.8163L63.9772 19.3009L62.0228 18.8766L56.9169 42.3919L58.8713 42.8163ZM23.3639 18.8766L18.2581 42.3919L20.2125 42.8163L25.3184 19.3009L23.3639 18.8766ZM63 18.0887H46.7706V20.0887H63V18.0887ZM31.4529 18.0887H24.3412V20.0887H31.4529V18.0887ZM19.2353 43.6041H36.5588V41.6041H19.2353V43.6041ZM35.5979 42.8809C35.9672 44.1631 35.9328 45.9331 34.8338 47.2497C33.756 48.5408 31.3986 49.6976 26.4458 49.2062L26.2483 51.1965C31.5073 51.7182 34.6812 50.5535 36.3692 48.5313C38.0358 46.5347 38.0014 43.9996 37.5197 42.3273L35.5979 42.8809ZM36.5588 43.6041H54.4294V41.6041H36.5588V43.6041ZM54.4294 43.6041H57.8941V41.6041H54.4294V43.6041ZM53.5364 43.0542C54.2034 44.3774 54.9466 48.6002 51.0981 53.3722L52.6549 54.6278C56.9757 49.2701 56.3574 44.2074 55.3224 42.154L53.5364 43.0542ZM17.4118 21.7065H2.82353V23.7065H17.4118V21.7065ZM15.5882 28.942H8.29412V30.942H15.5882V28.942ZM13.7647 36.1775H1V38.1775H13.7647V36.1775ZM54.5176 6.06485C54.5176 2.70486 51.7508 0 48.4118 0V2C50.6672 2 52.5176 3.83036 52.5176 6.06485H54.5176ZM48.4118 12.1297C51.7508 12.1297 54.5176 9.42483 54.5176 6.06485H52.5176C52.5176 8.29934 50.6672 10.1297 48.4118 10.1297V12.1297ZM42.3059 6.06485C42.3059 9.42483 45.0728 12.1297 48.4118 12.1297V10.1297C46.1563 10.1297 44.3059 8.29934 44.3059 6.06485H42.3059ZM33.792 23.7253C31.884 26.76 34.6236 30.5791 38.1097 29.7444L37.644 27.7993C35.901 28.2167 34.5312 26.3072 35.4851 24.7898L33.792 23.7253ZM44.3059 6.06485C44.3059 3.83036 46.1563 2 48.4118 2V0C45.0728 0 42.3059 2.70486 42.3059 6.06485H44.3059Z" fill="black"/>
</svg>
