<svg width="57" height="48" viewBox="0 0 57 48" fill="none" xmlns="http://www.w3.org/2000/svg">
<path d="M15.0001 48V42.1714M42.0001 48V42.1714M19.0001 48V41M38.0001 48V41M56.0001 7L54.0001 27.5M54.0001 48V32M54.0001 27.5H44.4287M54.0001 27.5V32M44.4287 27.5L44.0001 23H13.0001L11.3532 40.2926C11.1963 41.9402 12.882 43.1397 14.3872 42.4516L15.3751 42C18.1535 40.7299 21.3468 40.7299 24.1251 42V42C26.9035 43.2701 30.0968 43.2701 32.8751 42V42C35.6535 40.7299 38.8467 40.7299 41.6251 42L42.6131 42.4516C44.1183 43.1397 45.804 41.9402 45.6471 40.2926L44.8573 32M44.4287 27.5L44.8573 32M54.0001 32H44.8573M1 7.00014L3 27.5001M3 48.0001V32.0001M3 27.5001H12.5714L12.1429 32.0001H3M3 27.5001V32.0001M37.1429 16H11.0001V23H46.0001V16H41M37.1429 16V6.92857C37.1429 5.86345 38.0063 5 39.0714 5V5M37.1429 16H41M41 16V6.92857C41 5.86345 40.1365 5 39.0714 5V5M39.0714 5V0M14 13H26M17.0001 15H23" stroke="black" stroke-width="2"/>
</svg>
