<svg width="49" height="61" viewBox="0 0 49 61" fill="none" xmlns="http://www.w3.org/2000/svg">
<path d="M12.4651 21.1277V13.6535C12.4651 7.00685 17.8533 1.61865 24.5 1.61865V1.61865C31.1467 1.61865 36.5349 7.00685 36.5349 13.6535V21.1277M2 59.6186L4.61628 12.1641H44.3837L47 59.6186H2ZM36.5349 25.3459V25.3459C37.6908 25.3459 38.6279 24.3928 38.6279 23.2368V23.2368C38.6279 22.0809 37.6908 21.1277 36.5349 21.1277V21.1277C35.3789 21.1277 34.4419 22.0809 34.4419 23.2368V23.2368C34.4419 24.3928 35.3789 25.3459 36.5349 25.3459ZM12.4651 25.3459V25.3459C13.6211 25.3459 14.5581 24.3928 14.5581 23.2368V23.2368C14.5581 22.0809 13.6211 21.1277 12.4651 21.1277V21.1277C11.3092 21.1277 10.3721 22.0809 10.3721 23.2368V23.2368C10.3721 24.3928 11.3092 25.3459 12.4651 25.3459Z" stroke="white" stroke-width="2"/>
</svg>
