<svg width="65" height="56" viewBox="0 0 65 56" fill="none" xmlns="http://www.w3.org/2000/svg">
<path d="M42.1466 14.813C42.4405 14.3455 42.2998 13.7281 41.8322 13.4342C41.3647 13.1402 40.7474 13.281 40.4534 13.7485L42.1466 14.813ZM52.1093 27.011C52.6464 26.8824 52.9776 26.3427 52.849 25.8056C52.7204 25.2685 52.1807 24.9373 51.6436 25.0659L52.1093 27.011ZM19.2353 43.2227L18.2581 43.0106L17.9949 44.2227H19.2353V43.2227ZM57.8941 43.2227V44.2227H58.7003L58.8713 43.4349L57.8941 43.2227ZM63 19.7074L63.9772 19.9196L64.2404 18.7074H63V19.7074ZM24.3412 19.7074V18.7074H23.535L23.3639 19.4952L24.3412 19.7074ZM46.7706 18.7074C46.2183 18.7074 45.7706 19.1551 45.7706 19.7074C45.7706 20.2597 46.2183 20.7074 46.7706 20.7074V18.7074ZM31.4529 20.7074C32.0052 20.7074 32.4529 20.2597 32.4529 19.7074C32.4529 19.1551 32.0052 18.7074 31.4529 18.7074V20.7074ZM26.4458 49.8249C25.8962 49.7704 25.4065 50.1717 25.3519 50.7213C25.2974 51.2709 25.6988 51.7606 26.2483 51.8151L26.4458 49.8249ZM51.0981 53.9909C50.7514 54.4208 50.8188 55.0503 51.2487 55.3971C51.6786 55.7438 52.3082 55.6763 52.6549 55.2464L51.0981 53.9909ZM17.4118 24.3251C17.964 24.3251 18.4118 23.8774 18.4118 23.3251C18.4118 22.7729 17.964 22.3251 17.4118 22.3251V24.3251ZM2.82353 22.3251C2.27124 22.3251 1.82353 22.7729 1.82353 23.3251C1.82353 23.8774 2.27124 24.3251 2.82353 24.3251V22.3251ZM15.5882 31.5606C16.1405 31.5606 16.5882 31.1129 16.5882 30.5606C16.5882 30.0083 16.1405 29.5606 15.5882 29.5606V31.5606ZM8.29412 29.5606C7.74183 29.5606 7.29412 30.0083 7.29412 30.5606C7.29412 31.1129 7.74183 31.5606 8.29412 31.5606V29.5606ZM13.7647 38.7961C14.317 38.7961 14.7647 38.3484 14.7647 37.7961C14.7647 37.2438 14.317 36.7961 13.7647 36.7961V38.7961ZM1 36.7961C0.447715 36.7961 0 37.2438 0 37.7961C0 38.3484 0.447715 38.7961 1 38.7961V36.7961ZM40.4534 13.7485L33.792 24.3439L35.4851 25.4085L42.1466 14.813L40.4534 13.7485ZM38.1097 30.363L52.1093 27.011L51.6436 25.0659L37.644 28.418L38.1097 30.363ZM58.8713 43.4349L63.9772 19.9196L62.0228 19.4952L56.9169 43.0106L58.8713 43.4349ZM23.3639 19.4952L18.2581 43.0106L20.2125 43.4349L25.3184 19.9196L23.3639 19.4952ZM63 18.7074H46.7706V20.7074H63V18.7074ZM31.4529 18.7074H24.3412V20.7074H31.4529V18.7074ZM19.2353 44.2227H36.5588V42.2227H19.2353V44.2227ZM35.5979 43.4995C35.9672 44.7817 35.9328 46.5518 34.8338 47.8684C33.756 49.1595 31.3986 50.3162 26.4458 49.8249L26.2483 51.8151C31.5073 52.3368 34.6812 51.1722 36.3692 49.15C38.0358 47.1533 38.0014 44.6182 37.5197 42.946L35.5979 43.4995ZM36.5588 44.2227H54.4294V42.2227H36.5588V44.2227ZM54.4294 44.2227H57.8941V42.2227H54.4294V44.2227ZM53.5364 43.6729C54.2034 44.996 54.9466 49.2189 51.0981 53.9909L52.6549 55.2464C56.9757 49.8888 56.3574 44.826 55.3224 42.7726L53.5364 43.6729ZM17.4118 22.3251H2.82353V24.3251H17.4118V22.3251ZM15.5882 29.5606H8.29412V31.5606H15.5882V29.5606ZM13.7647 36.7961H1V38.7961H13.7647V36.7961ZM54.5176 6.6835C54.5176 3.32351 51.7508 0.618652 48.4118 0.618652V2.61865C50.6672 2.61865 52.5176 4.44901 52.5176 6.6835H54.5176ZM48.4118 12.7483C51.7508 12.7483 54.5176 10.0435 54.5176 6.6835H52.5176C52.5176 8.91799 50.6672 10.7483 48.4118 10.7483V12.7483ZM42.3059 6.6835C42.3059 10.0435 45.0728 12.7483 48.4118 12.7483V10.7483C46.1563 10.7483 44.3059 8.91799 44.3059 6.6835H42.3059ZM33.792 24.3439C31.884 27.3786 34.6236 31.1977 38.1097 30.363L37.644 28.418C35.901 28.8353 34.5312 26.9258 35.4851 25.4085L33.792 24.3439ZM44.3059 6.6835C44.3059 4.44901 46.1563 2.61865 48.4118 2.61865V0.618652C45.0728 0.618652 42.3059 3.32351 42.3059 6.6835H44.3059Z" fill="white"/>
</svg>
